# Blender 4.5.0
# www.blender.org
mtllib arm_link_lower_jaw_realsense_mount.mtl
o spot_lower_jaw_mount
v -0.020982 -0.067386 -0.051804
v -0.020940 -0.078386 -0.051803
v -0.024549 -0.078386 -0.051076
v -0.024704 -0.067386 -0.051016
v -0.029214 -0.078386 -0.047922
v -0.029286 -0.067386 -0.047830
v -0.032802 -0.078386 -0.040524
v -0.032636 -0.067361 -0.040785
v -0.034873 -0.066959 -0.039185
v -0.035138 -0.078386 -0.039131
v -0.042896 -0.078386 -0.038286
v -0.042362 -0.066651 -0.038399
v -0.044799 -0.065969 -0.037178
v -0.045550 -0.078386 -0.036414
v -0.046101 -0.064312 -0.035338
v -0.046446 -0.078386 -0.034070
v -0.046498 -0.061075 -0.033753
v -0.019781 -0.067386 -0.046866
v -0.025184 -0.067387 -0.048493
v -0.020886 -0.067388 -0.043098
v -0.024042 -0.067391 -0.042459
v -0.019679 -0.067386 -0.045110
v 0.019229 -0.067387 -0.043766
v -0.026193 -0.067387 -0.044558
v -0.022958 -0.067386 -0.049234
v -0.020883 -0.067387 -0.048511
v 0.021492 -0.067387 -0.042415
v -0.026314 -0.067386 -0.046607
v 0.023532 -0.067386 -0.051076
v 0.019924 -0.067386 -0.051803
v 0.024244 -0.067387 -0.048429
v 0.021513 -0.067388 -0.049264
v 0.025494 -0.067390 -0.045619
v 0.028197 -0.067386 -0.047922
v 0.019265 -0.067387 -0.047884
v 0.023982 -0.067387 -0.043023
v 0.018590 -0.067386 -0.045947
v 0.041446 -0.073305 -0.026523
v 0.041485 -0.020275 -0.026090
v 0.039246 -0.023071 -0.028542
v 0.039651 -0.075243 -0.028461
v 0.040729 -0.022099 -0.027690
v -0.039967 -0.075366 -0.028584
v -0.040480 -0.023026 -0.028502
v -0.041410 -0.074787 -0.028006
v -0.042426 -0.021052 -0.026771
v -0.042496 -0.073013 -0.026231
v -0.046508 -0.028846 -0.033604
v 0.045492 -0.028846 -0.033604
v 0.022629 -0.078386 -0.047330
v 0.023353 -0.069147 -0.046737
v 0.023673 -0.078386 -0.046107
v 0.023607 -0.069147 -0.045650
v 0.023034 -0.069149 -0.044531
v 0.023015 -0.078386 -0.044528
v 0.021622 -0.078386 -0.044209
v 0.021747 -0.069147 -0.044209
v 0.020590 -0.069150 -0.044924
v 0.020467 -0.078386 -0.045165
v 0.020540 -0.069154 -0.046698
v 0.020564 -0.078386 -0.046661
v 0.021548 -0.078386 -0.047386
v 0.022133 -0.069150 -0.047482
v -0.046508 -0.075386 -0.028604
v -0.046508 -0.078386 -0.028604
v 0.045492 -0.078386 -0.028604
v 0.045492 -0.075386 -0.028604
v -0.042508 -0.037334 -0.006370
v -0.042508 -0.001500 0.001643
v -0.042508 -0.040723 -0.008711
v -0.042508 -0.055894 -0.009113
v -0.042508 -0.038692 -0.004813
v -0.042508 -0.041060 -0.005371
v -0.042508 -0.041618 -0.007500
v -0.042508 0.001264 0.005944
v -0.042508 -0.027839 0.005903
v -0.042508 -0.000570 -0.002448
v -0.042508 -0.002172 -0.001568
v -0.042508 -0.002546 0.000316
v -0.042508 -0.037569 -0.008136
v -0.042508 -0.000218 0.001927
v -0.042508 0.001120 0.001359
v -0.042508 0.003953 0.004423
v -0.042508 0.005846 0.001408
v -0.042508 0.001742 0.000148
v -0.042508 0.001420 -0.001615
v -0.042508 0.005693 -0.002149
v -0.042508 0.004495 -0.004314
v -0.042508 -0.039292 -0.009180
v 0.041492 -0.055894 -0.009113
v 0.045492 -0.055894 -0.009113
v 0.041492 -0.027839 0.005903
v 0.045492 -0.027837 0.005894
v 0.045492 0.001231 0.005956
v 0.041492 0.001037 0.005980
v -0.022731 -0.069147 -0.047420
v -0.023290 -0.078386 -0.047490
v -0.021679 -0.078386 -0.046828
v -0.021805 -0.069147 -0.046931
v -0.021360 -0.069149 -0.045683
v -0.021410 -0.078386 -0.045493
v -0.022260 -0.069152 -0.044315
v -0.022157 -0.078386 -0.044397
v -0.023441 -0.078386 -0.044253
v -0.024058 -0.069152 -0.044508
v -0.024379 -0.078386 -0.044921
v -0.024649 -0.069148 -0.045998
v -0.024594 -0.078386 -0.046335
v -0.023901 -0.069149 -0.047216
v 0.045492 -0.041060 -0.005371
v 0.045492 -0.037334 -0.006370
v 0.045492 -0.002546 0.000316
v 0.045492 -0.001500 0.001643
v 0.045492 -0.037569 -0.008136
v 0.045492 -0.041618 -0.007500
v 0.045492 -0.040723 -0.008711
v 0.045492 -0.038692 -0.004813
v 0.045492 -0.000570 -0.002448
v 0.045492 -0.000218 0.001927
v 0.045492 0.001120 0.001359
v 0.045492 0.003953 0.004423
v 0.045492 0.005846 0.001408
v 0.045492 0.001742 0.000148
v 0.045492 0.001420 -0.001615
v 0.045492 0.005693 -0.002149
v 0.045492 0.004495 -0.004314
v 0.045492 -0.002172 -0.001568
v 0.045492 -0.039292 -0.009180
v 0.041492 -0.000232 0.001968
v 0.041492 -0.002172 0.001142
v 0.041492 -0.002532 -0.000702
v 0.041492 -0.001844 -0.001875
v 0.041492 -0.000409 -0.002455
v 0.041492 0.001338 -0.001654
v 0.041492 0.001777 0.000074
v 0.041492 0.001159 0.001285
v 0.041492 0.004269 0.004219
v 0.041492 0.005926 0.000764
v 0.041492 0.005349 -0.003247
v -0.046508 -0.055894 -0.009113
v -0.046508 0.005349 -0.003247
v -0.046508 -0.041330 -0.005797
v -0.046508 -0.041617 -0.007175
v -0.046508 -0.040999 -0.008545
v -0.046508 -0.039422 -0.009147
v -0.046508 -0.037749 -0.008406
v -0.046508 -0.037283 -0.006827
v -0.046508 -0.037786 -0.005512
v -0.046508 -0.039634 -0.004706
v 0.041492 -0.041330 -0.005797
v 0.041492 -0.041617 -0.007175
v 0.041492 -0.040999 -0.008545
v 0.041492 -0.039179 -0.009162
v 0.041492 -0.037629 -0.008192
v 0.041492 -0.037283 -0.006827
v 0.041492 -0.037786 -0.005512
v 0.041492 -0.039634 -0.004706
v 0.019965 -0.078386 -0.051804
v 0.023687 -0.078386 -0.051016
v 0.028270 -0.078386 -0.047830
v 0.045234 -0.078386 -0.035050
v 0.034200 -0.078386 -0.039108
v 0.043874 -0.078386 -0.037083
v 0.041587 -0.078386 -0.038346
v 0.031831 -0.078386 -0.040474
v -0.046508 -0.027837 0.005894
v -0.046508 -0.001844 -0.001875
v -0.046508 -0.002532 -0.000702
v -0.046508 -0.002172 0.001142
v -0.046508 0.001338 -0.001654
v -0.046508 -0.000409 -0.002455
v -0.046508 0.001777 0.000074
v -0.046508 0.005926 0.000764
v -0.046508 0.004269 0.004219
v -0.046508 0.001159 0.001285
v -0.046508 -0.000232 0.001968
v -0.046508 0.001004 0.005990
v 0.045251 -0.063543 -0.034809
v 0.045483 -0.060720 -0.033699
v 0.044576 -0.065228 -0.036249
v 0.043185 -0.066263 -0.037640
v 0.040266 -0.066721 -0.038570
v 0.034019 -0.066947 -0.039154
v 0.031694 -0.067359 -0.040656
vn -0.1976 -0.0008 -0.9803
vn -0.2072 0.0025 -0.9783
vn -0.5602 -0.0033 -0.8284
vn -0.5708 0.0031 -0.8211
vn -0.8998 -0.0023 -0.4364
vn -0.9031 0.0034 -0.4294
vn -0.5830 -0.0105 -0.8124
vn -0.5121 0.0078 -0.8589
vn -0.1083 -0.0022 -0.9941
vn -0.1045 -0.0049 -0.9945
vn -0.4454 0.0116 -0.8952
vn -0.5764 -0.0155 -0.8170
vn -0.8106 0.0130 -0.5854
vn -0.9339 -0.0093 -0.3573
vn -0.9693 0.0016 -0.2457
vn -0.0001 1.0000 -0.0004
vn 0.0027 1.0000 -0.0023
vn -0.0006 1.0000 0.0004
vn 0.0002 1.0000 -0.0003
vn 0.0033 1.0000 -0.0013
vn 0.0003 1.0000 0.0005
vn 0.0001 1.0000 0.0002
vn -0.0000 1.0000 0.0002
vn -0.0016 1.0000 -0.0064
vn -0.0000 1.0000 0.0003
vn -0.0006 1.0000 0.0022
vn -0.0000 0.9998 -0.0181
vn -0.0002 1.0000 0.0004
vn 0.0008 1.0000 0.0003
vn -0.0002 1.0000 0.0010
vn -0.0000 1.0000 -0.0000
vn -0.0005 1.0000 0.0006
vn 0.0017 0.9997 -0.0258
vn -0.0004 1.0000 0.0010
vn -0.0003 1.0000 0.0005
vn -0.0031 1.0000 -0.0022
vn -0.0000 1.0000 -0.0001
vn -0.0028 1.0000 -0.0025
vn -0.0000 1.0000 0.0004
vn -0.7360 0.0051 0.6770
vn -0.9029 -0.0029 0.4299
vn -0.4971 -0.0025 0.8677
vn 0.3728 0.0022 0.9279
vn 0.6618 -0.0047 0.7497
vn 0.8548 0.0042 0.5189
vn 0.0006 0.0046 -1.0000
vn -0.0000 0.0030 -1.0000
vn -0.0515 0.0137 0.9986
vn -0.5207 -0.0139 0.8536
vn -0.7605 0.0180 0.6491
vn -0.9737 -0.0182 0.2271
vn -0.8899 0.0162 -0.4558
vn -0.9231 0.0017 -0.3846
vn -0.2232 0.0002 -0.9748
vn -0.2426 0.0033 -0.9701
vn 0.5256 -0.0072 -0.8507
vn 0.6375 0.0116 -0.7704
vn 0.9995 -0.0126 -0.0278
vn 0.9979 0.0028 0.0649
vn 0.5930 0.0048 0.8052
vn 0.4414 -0.0186 0.8971
vn -0.0031 -0.0000 1.0000
vn 0.0245 -0.0000 0.9997
vn 0.0005 0.0016 1.0000
vn -0.0015 -0.0016 1.0000
vn -0.0015 -0.0483 0.9988
vn -0.0000 -0.0067 1.0000
vn -0.1743 0.6906 -0.7020
vn -0.1713 0.6922 -0.7011
vn -0.6433 0.6674 -0.3752
vn -0.6411 0.6944 -0.3268
vn -0.6744 0.7215 0.1567
vn -0.6948 0.6491 0.3096
vn -0.3542 0.7349 0.5783
vn -0.2215 0.6539 0.7234
vn 0.3008 0.7284 0.6155
vn 0.3795 0.6885 0.6180
vn 0.7012 0.6699 0.2441
vn 0.6671 0.7447 -0.0204
vn 0.7043 0.6793 -0.2061
vn 0.3698 0.6926 -0.6194
vn 0.3809 0.6867 -0.6192
vn 1.0000 -0.0002 -0.0003
vn 1.0000 -0.0000 0.0003
vn 1.0000 -0.0000 -0.0000
vn 1.0000 -0.0013 0.0042
vn 1.0000 0.0003 0.0002
vn 1.0000 -0.0002 0.0012
vn 1.0000 -0.0001 0.0008
vn 1.0000 0.0009 0.0026
vn 1.0000 -0.0000 -0.0005
vn 1.0000 -0.0005 -0.0001
vn 1.0000 0.0001 0.0004
vn 1.0000 0.0013 0.0023
vn -0.0000 -0.4719 0.8817
vn 0.0023 -0.4716 0.8818
vn 0.0023 -0.0021 1.0000
vn 0.0062 -0.0027 1.0000
vn -0.3804 0.0160 0.9247
vn -0.4670 0.0035 0.8843
vn -0.9419 -0.0091 0.3359
vn -0.9802 0.0094 0.1976
vn -0.8351 -0.0068 -0.5501
vn -0.8265 -0.0043 -0.5629
vn -0.8262 -0.0048 -0.5633
vn -0.1112 0.0075 -0.9938
vn 0.1063 -0.0203 -0.9941
vn 0.5800 0.0163 -0.8144
vn 0.9295 -0.0158 -0.3685
vn 0.9296 -0.0155 -0.3682
vn 0.9886 0.0113 -0.1502
vn 0.8521 -0.0141 0.5232
vn 0.6633 0.0216 0.7481
vn 0.6629 0.0211 0.7484
vn 0.1717 -0.0179 0.9850
vn 0.9992 -0.0000 -0.0400
vn 0.9993 -0.0114 -0.0347
vn 1.0000 -0.0003 0.0002
vn 1.0000 0.0003 -0.0009
vn -0.0105 0.2167 -0.9762
vn 0.0494 0.3911 -0.9190
vn -0.0543 0.7844 -0.6179
vn 0.0520 0.9801 -0.1914
vn -0.0462 0.9798 0.1945
vn 0.0318 0.8620 0.5059
vn -0.0278 0.4812 0.8762
vn 0.0134 0.3747 0.9271
vn -0.0172 -0.3863 0.9222
vn -0.0002 -0.4171 0.9088
vn 0.0176 -0.9689 0.2466
vn -0.0120 -0.9837 0.1795
vn 0.0006 -0.8897 -0.4565
vn -0.0001 -0.8906 -0.4548
vn 0.0124 -0.4406 -0.8976
vn -0.0080 -0.3905 -0.9206
vn -0.0000 -0.0001 -1.0000
vn -0.0000 0.0001 -1.0000
vn -0.0179 0.4785 0.8779
vn -0.0057 0.4907 0.8713
vn 0.0397 0.8462 0.5313
vn -0.0515 0.9005 0.4319
vn 0.0269 0.9987 -0.0429
vn -0.0459 0.9888 -0.1421
vn 0.0577 0.8735 -0.4834
vn -0.0000 -0.7071 0.7071
vn -0.0000 0.6592 -0.7520
vn -0.0568 0.6644 -0.7452
vn 0.0030 0.6600 -0.7513
vn -0.0575 0.6628 -0.7466
vn -0.0034 0.6602 -0.7511
vn -0.0798 0.2286 -0.9702
vn 0.0529 0.5401 -0.8399
vn -0.0384 0.9667 -0.2531
vn -0.0163 0.9790 -0.2034
vn 0.0336 0.9110 0.4110
vn -0.0309 0.8036 0.5943
vn 0.0178 0.3117 0.9500
vn -0.0039 0.3567 0.9342
vn 0.0207 -0.4050 0.9141
vn -0.0344 -0.5181 0.8546
vn 0.0240 -0.9589 0.2828
vn -0.0277 -0.9909 0.1319
vn 0.0290 -0.9337 -0.3568
vn -0.0557 -0.7524 -0.6563
vn 0.0695 -0.3989 -0.9143
vn 0.0134 0.3210 0.9470
vn -0.0106 -0.5183 0.8551
vn -0.0040 -0.5303 0.8478
vn 0.0112 -0.9692 0.2459
vn -0.1533 0.6393 -0.7535
vn -0.5826 0.7174 -0.3820
vn -0.6112 0.7017 -0.3661
vn -0.7300 0.6822 0.0422
vn -0.6430 0.7305 0.2301
vn -0.6072 0.6828 0.4064
vn -0.3235 0.7202 0.6137
vn -0.2407 0.6813 0.6913
vn 0.1178 0.7200 0.6839
vn 0.2324 0.6762 0.6991
vn 0.6027 0.7071 0.3698
vn 0.6102 0.7030 0.3653
vn 0.7334 0.6784 -0.0432
vn 0.6213 0.7445 -0.2442
vn 0.5393 0.6366 -0.5513
vn 0.0696 0.7563 -0.6505
vn -1.0000 -0.0000 -0.0000
vn -1.0000 -0.0000 0.0003
vn -1.0000 -0.0001 0.0003
vn -1.0000 0.0005 0.0016
vn -1.0000 -0.0004 0.0030
vn -1.0000 0.0011 0.0005
vn -1.0000 0.0007 0.0012
vn -1.0000 0.0001 0.0002
vn -0.0000 -1.0000 -0.0000
vn -0.0023 -0.4716 0.8818
vn 0.0118 -0.0014 0.9999
vn -0.0023 -0.0033 1.0000
vn -0.9999 -0.0000 -0.0113
vn -0.9999 -0.0028 -0.0098
vn -1.0000 0.0005 -0.0008
vn -1.0000 -0.0001 -0.0003
vn -1.0000 -0.0003 -0.0001
vn -1.0000 -0.0000 0.0005
vn -1.0000 0.0005 0.0001
vn -1.0000 -0.0000 -0.0003
vn -1.0000 -0.0003 -0.0000
vn 0.9001 0.0040 -0.4357
vn 0.9011 0.0023 -0.4336
vn 0.5708 -0.0031 -0.8211
vn 0.5602 0.0033 -0.8284
vn 0.2072 -0.0025 -0.9783
vn 0.1976 0.0008 -0.9803
vn 0.9777 0.0023 -0.2101
vn 0.9029 0.0059 -0.4299
vn 0.8311 -0.0091 -0.5560
vn 0.7041 0.0074 -0.7100
vn 0.4835 -0.0127 -0.8752
vn 0.3015 0.0158 -0.9533
vn 0.0931 -0.0025 -0.9956
vn 0.1026 -0.0075 -0.9947
vn 0.4993 0.0045 -0.8664
vn 0.5433 -0.0071 -0.8395
vn -0.0207 0.4769 0.8787
vn -0.0055 0.4923 0.8704
vn -0.0009 0.3659 -0.9307
vn 0.0015 0.4400 -0.8980
vn -0.0011 0.6499 -0.7600
vn 0.0008 0.7433 -0.6690
vn -0.0005 0.8025 -0.5967
vn 0.0004 0.8734 -0.4871
vn -0.0002 0.8973 -0.4415
vn -0.0000 0.9326 -0.3608
vn -0.0000 0.9312 -0.3646
vn -0.0001 0.9643 -0.2648
vn 0.0005 0.9701 -0.2428
s 0
f 2//1 3//1 1//1
f 1//2 3//2 4//2
f 3//3 5//3 4//3
f 4//4 5//4 6//4
f 5//5 7//5 6//5
f 6//6 7//6 8//6
f 8//7 7//7 9//7
f 7//8 10//8 9//8
f 10//9 11//9 9//9
f 9//10 11//10 12//10
f 11//11 13//11 12//11
f 14//12 13//12 11//12
f 15//13 13//13 14//13
f 16//14 15//14 14//14
f 17//15 15//15 16//15
f 26//16 18//16 30//16
f 6//17 8//17 24//17
f 22//18 20//18 184//18
f 28//19 19//19 6//19
f 21//20 24//20 8//20
f 6//21 19//21 4//21
f 25//22 26//22 1//22
f 1//23 26//23 30//23
f 36//24 27//24 184//24
f 24//25 28//25 6//25
f 4//23 25//23 1//23
f 184//26 20//26 21//26
f 184//27 21//27 8//27
f 19//28 25//28 4//28
f 30//29 35//29 32//29
f 30//30 32//30 29//30
f 27//31 23//31 22//31
f 30//23 18//23 35//23
f 32//32 31//32 29//32
f 184//33 27//33 22//33
f 31//34 33//34 34//34
f 29//35 31//35 34//35
f 34//36 33//36 184//36
f 37//37 35//37 18//37
f 33//38 36//38 184//38
f 23//39 37//39 22//39
f 22//31 37//31 18//31
f 41//40 38//40 42//40
f 42//41 38//41 39//41
f 40//42 41//42 42//42
f 43//43 44//43 45//43
f 44//44 46//44 45//44
f 45//45 46//45 47//45
f 17//46 48//46 179//46
f 48//47 49//47 179//47
f 62//48 50//48 63//48
f 63//49 50//49 51//49
f 50//50 52//50 51//50
f 51//51 52//51 53//51
f 53//52 52//52 54//52
f 52//53 55//53 54//53
f 55//54 56//54 54//54
f 54//55 56//55 57//55
f 57//56 56//56 58//56
f 56//57 59//57 58//57
f 58//58 59//58 60//58
f 59//59 61//59 60//59
f 61//60 62//60 60//60
f 60//61 62//61 63//61
f 43//62 64//62 65//62
f 66//63 67//63 41//63
f 40//64 44//64 41//64
f 44//65 43//65 41//65
f 41//66 43//66 66//66
f 43//67 65//67 66//67
f 57//68 27//68 54//68
f 27//69 36//69 54//69
f 36//70 33//70 54//70
f 54//71 33//71 53//71
f 53//72 33//72 51//72
f 33//73 31//73 51//73
f 51//74 31//74 63//74
f 31//75 32//75 63//75
f 63//76 32//76 60//76
f 32//77 35//77 60//77
f 35//78 37//78 60//78
f 60//79 37//79 58//79
f 37//80 23//80 58//80
f 23//81 27//81 58//81
f 58//82 27//82 57//82
f 76//83 72//84 68//84
f 79//85 69//85 76//85
f 46//86 78//86 47//86
f 76//85 68//85 79//85
f 47//87 70//87 74//87
f 72//85 76//85 73//85
f 74//85 73//85 71//85
f 71//85 73//85 76//85
f 76//85 69//85 75//85
f 78//88 89//88 47//88
f 86//85 77//85 88//85
f 47//89 74//89 71//89
f 69//85 81//85 75//85
f 81//85 82//85 75//85
f 75//85 82//85 83//85
f 83//85 82//85 84//85
f 82//85 85//85 84//85
f 85//85 86//85 84//85
f 84//85 86//85 87//85
f 87//85 86//85 88//85
f 88//90 77//90 46//90
f 80//91 89//91 78//92
f 68//85 80//85 78//85
f 89//93 70//93 47//93
f 77//94 78//94 46//94
f 78//85 79//85 68//85
f 90//95 91//95 92//95
f 91//96 93//96 92//96
f 93//97 94//97 92//97
f 94//98 95//98 92//98
f 97//99 98//99 96//99
f 96//100 98//100 99//100
f 99//101 98//101 100//101
f 98//102 101//102 100//102
f 100//103 101//103 102//103
f 101//104 103//104 102//105
f 103//106 104//106 102//106
f 102//107 104//107 105//107
f 104//108 106//108 105//108
f 105//109 106//110 107//109
f 106//111 108//111 107//111
f 107//112 108//112 109//112
f 108//113 97//113 109//114
f 109//115 97//115 96//115
f 66//116 161//116 67//116
f 161//117 179//117 67//117
f 115//85 110//85 91//85
f 111//85 112//85 93//85
f 112//85 113//85 93//85
f 49//118 127//118 179//118
f 179//119 127//119 67//119
f 67//85 115//85 91//85
f 91//85 110//85 93//85
f 117//85 111//85 93//85
f 93//85 113//85 94//85
f 67//85 128//85 116//85
f 116//85 115//85 67//85
f 93//85 110//85 117//85
f 124//85 118//85 126//85
f 111//85 114//85 127//85
f 113//85 119//85 94//85
f 119//85 120//85 94//85
f 94//85 120//85 121//85
f 121//85 120//85 122//85
f 120//85 123//85 122//85
f 123//85 124//85 122//85
f 122//85 124//85 125//85
f 125//85 124//85 126//85
f 114//85 128//85 127//85
f 127//85 128//85 67//85
f 126//85 118//85 49//85
f 112//85 111//85 127//85
f 118//85 127//85 49//85
f 119//120 113//120 129//120
f 129//121 113//121 130//121
f 113//122 112//122 130//122
f 130//123 112//123 131//123
f 112//124 127//124 131//124
f 131//125 127//125 132//125
f 127//126 118//126 132//126
f 132//127 118//127 133//127
f 118//128 124//128 133//128
f 133//129 124//129 134//129
f 134//130 124//130 135//130
f 124//131 123//131 135//131
f 123//132 120//132 135//132
f 135//133 120//133 136//133
f 136//134 120//134 129//134
f 120//135 119//135 129//135
f 2//136 1//136 158//136
f 1//137 30//137 158//137
f 95//138 94//138 137//138
f 94//139 121//139 137//139
f 121//140 122//140 137//140
f 137//141 122//141 138//141
f 122//142 125//142 138//142
f 138//143 125//143 139//143
f 125//144 126//144 139//144
f 43//145 45//145 64//145
f 45//145 47//145 64//145
f 71//145 140//145 47//145
f 140//145 64//145 47//145
f 48//146 46//146 44//146
f 48//146 44//146 49//146
f 44//146 40//146 49//146
f 42//146 39//146 49//146
f 139//147 126//147 39//147
f 126//148 49//148 39//148
f 141//149 88//149 48//149
f 88//150 46//150 48//150
f 49//146 40//146 42//146
f 72//151 73//151 149//151
f 149//152 73//152 142//152
f 73//153 74//153 142//153
f 142//154 74//154 143//154
f 143//155 74//155 144//155
f 74//156 70//156 144//156
f 70//157 89//157 144//157
f 144//158 89//158 145//158
f 145//159 89//159 146//159
f 89//160 80//160 146//160
f 146//161 80//161 147//161
f 80//162 68//162 147//162
f 147//163 68//163 148//163
f 68//164 72//164 148//164
f 148//165 72//165 149//165
f 38//145 41//145 67//145
f 91//145 90//145 67//145
f 90//145 38//145 67//145
f 117//151 110//151 157//151
f 157//152 110//152 150//152
f 110//153 115//153 150//153
f 150//154 115//154 151//154
f 151//155 115//155 152//155
f 115//156 116//156 152//156
f 116//157 128//157 152//157
f 152//166 128//166 153//166
f 128//167 114//167 153//167
f 153//168 114//168 154//168
f 154//169 114//169 155//169
f 114//162 111//162 155//162
f 155//163 111//163 156//163
f 111//164 117//164 156//164
f 156//165 117//165 157//165
f 21//170 20//170 102//170
f 102//171 20//171 100//171
f 20//172 22//172 100//172
f 22//173 18//173 100//173
f 100//174 18//174 99//174
f 18//175 26//175 99//175
f 99//176 26//176 96//176
f 26//177 25//177 96//177
f 96//178 25//178 109//178
f 25//179 19//179 109//179
f 109//180 19//180 107//180
f 19//181 28//181 107//181
f 28//182 24//182 107//182
f 107//183 24//183 105//183
f 24//184 21//184 105//184
f 105//185 21//185 102//185
f 156//186 157//186 92//186
f 139//187 39//187 133//187
f 133//186 134//186 139//186
f 130//186 131//186 153//186
f 131//186 132//186 153//186
f 153//188 132//188 39//188
f 157//186 150//186 90//186
f 130//186 153//186 154//186
f 130//186 154//186 155//186
f 130//186 155//186 156//186
f 130//186 156//186 92//186
f 92//186 157//186 90//186
f 38//189 152//189 153//189
f 150//186 151//186 90//186
f 90//190 151//190 38//190
f 38//191 151//191 152//191
f 38//192 153//192 39//192
f 132//193 133//193 39//193
f 129//186 130//186 95//186
f 95//186 130//186 92//186
f 134//186 135//186 139//186
f 139//186 135//186 138//186
f 138//186 135//186 137//186
f 135//186 136//186 137//186
f 136//186 129//186 137//186
f 137//186 129//186 95//186
f 3//194 2//194 97//194
f 158//194 98//194 2//194
f 108//194 106//194 5//194
f 5//194 106//194 7//194
f 104//194 66//194 65//194
f 104//194 103//194 66//194
f 62//194 61//194 158//194
f 101//194 98//194 158//194
f 98//194 97//194 2//194
f 3//194 97//194 5//194
f 65//194 106//194 104//194
f 103//194 101//194 66//194
f 159//194 62//194 158//194
f 101//194 56//194 66//194
f 56//194 55//194 66//194
f 97//194 108//194 5//194
f 165//194 162//194 66//194
f 50//194 62//194 159//194
f 65//194 10//194 7//194
f 7//194 106//194 65//194
f 59//194 101//194 61//194
f 55//194 165//194 66//194
f 158//194 61//194 101//194
f 59//194 56//194 101//194
f 66//194 162//194 161//194
f 55//194 52//194 160//194
f 160//194 52//194 159//194
f 52//194 50//194 159//194
f 162//194 163//194 161//194
f 160//194 165//194 55//194
f 164//194 163//194 162//194
f 65//194 11//194 10//194
f 65//194 16//194 11//194
f 16//194 14//194 11//194
f 166//195 140//195 76//195
f 140//95 71//95 76//95
f 75//196 177//196 76//196
f 177//197 166//197 76//197
f 16//198 65//198 64//198
f 16//199 64//199 17//199
f 64//200 144//200 17//200
f 145//186 168//186 48//186
f 48//186 168//186 167//186
f 171//186 170//186 141//186
f 168//186 145//186 146//186
f 17//201 144//201 145//201
f 17//202 145//202 48//202
f 48//186 171//186 141//186
f 142//186 143//186 140//186
f 168//186 146//186 147//186
f 166//186 169//186 148//186
f 169//186 168//186 148//186
f 140//186 143//186 64//186
f 64//186 143//186 144//186
f 48//186 167//186 171//186
f 166//186 149//186 140//186
f 148//186 149//186 166//186
f 149//203 142//203 140//204
f 176//186 169//186 177//186
f 177//186 169//186 166//186
f 147//205 148//205 168//206
f 170//186 172//186 141//186
f 141//186 172//186 173//186
f 173//186 172//186 174//186
f 172//186 175//186 174//186
f 175//186 176//186 174//186
f 174//186 176//186 177//186
f 165//207 160//207 184//207
f 184//208 160//208 34//208
f 160//209 159//209 34//209
f 34//210 159//210 29//210
f 159//211 158//211 29//211
f 29//212 158//212 30//212
f 161//213 178//213 179//213
f 180//214 178//214 161//214
f 161//215 163//215 180//215
f 163//216 181//216 180//216
f 164//217 181//217 163//217
f 164//218 182//218 181//218
f 183//219 182//219 162//219
f 162//220 182//220 164//220
f 165//221 183//221 162//221
f 165//222 184//222 183//222
f 177//223 75//223 174//223
f 75//224 83//224 174//224
f 83//140 84//140 174//140
f 174//141 84//141 173//141
f 84//142 87//142 173//142
f 173//143 87//143 141//143
f 87//144 88//144 141//144
f 179//225 178//225 17//225
f 17//226 178//226 15//226
f 180//227 15//227 178//227
f 13//228 15//228 180//228
f 181//229 13//229 180//229
f 12//230 13//230 181//230
f 12//231 181//231 182//231
f 183//232 9//232 182//232
f 9//233 12//233 182//233
f 183//234 184//234 9//234
f 184//235 8//235 9//235
f 81//120 69//120 176//120
f 176//121 69//121 169//121
f 69//122 79//122 169//122
f 169//123 79//123 168//123
f 79//124 78//124 168//124
f 168//125 78//125 167//125
f 78//126 77//126 167//126
f 167//127 77//127 171//127
f 77//128 86//128 171//128
f 171//129 86//129 170//129
f 170//130 86//130 172//130
f 86//131 85//131 172//131
f 85//132 82//132 172//132
f 172//133 82//133 175//133
f 175//134 82//134 176//134
f 82//135 81//135 176//135
